<?xml version="1.0" encoding="UTF-8" standalone="no"?>
<!-- Created with Inkscape (http://www.inkscape.org/) -->

<svg
   width="80.487297mm"
   height="17.558607mm"
   viewBox="0 0 80.487297 17.558607"
   version="1.1"
   id="svg1"
   inkscape:version="1.3 (0e150ed6c4, 2023-07-21)"
   sodipodi:docname="logotype_for_navigation_header.svg"
   xml:space="preserve"
   xmlns:inkscape="http://www.inkscape.org/namespaces/inkscape"
   xmlns:sodipodi="http://sodipodi.sourceforge.net/DTD/sodipodi-0.dtd"
   xmlns="http://www.w3.org/2000/svg"
   xmlns:svg="http://www.w3.org/2000/svg"><sodipodi:namedview
     id="namedview1"
     pagecolor="#ffffff"
     bordercolor="#000000"
     borderopacity="0.25"
     inkscape:showpageshadow="2"
     inkscape:pageopacity="0.0"
     inkscape:pagecheckerboard="0"
     inkscape:deskcolor="#d1d1d1"
     inkscape:document-units="mm"
     showguides="true"
     inkscape:zoom="2.1543544"
     inkscape:cx="144.12671"
     inkscape:cy="-8.5872594"
     inkscape:window-width="1920"
     inkscape:window-height="1111"
     inkscape:window-x="-9"
     inkscape:window-y="-9"
     inkscape:window-maximized="1"
     inkscape:current-layer="layer1" /><defs
     id="defs1"><filter
       style="color-interpolation-filters:sRGB"
       inkscape:label="Lightness-Contrast"
       id="filter36"
       x="0"
       y="0"
       width="1"
       height="1"><feColorMatrix
         values="0.21 0.72 0.072 0 0 0.21 0.72 0.072 0 0 0.21 0.72 0.072 0 0 0 0 0 1 0 "
         id="feColorMatrix36"
         result="fbSourceGraphic" /><feColorMatrix
         result="fbSourceGraphicAlpha"
         in="fbSourceGraphic"
         values="0 0 0 -1 0 0 0 0 -1 0 0 0 0 -1 0 0 0 0 1 0"
         id="feColorMatrix63" /><feColorMatrix
         id="feColorMatrix64"
         values="1 0 0 0.333333 -0 0 1 0 0.333333 -0 0 0 1 0.333333 -0 0 0 0 1 0"
         in="fbSourceGraphic" /></filter></defs><g
     inkscape:label="Livello 1"
     inkscape:groupmode="layer"
     id="layer1"
     style="display:inline"
     transform="translate(-246.61956,106.36288)"><g
       id="g54"
       style="filter:url(#filter36)"
       transform="matrix(0.25373848,0,0,0.25373848,240.62049,-137.44415)"><g
         id="g52"
         transform="translate(8.336842,-28.48421)"><path
           style="fill:#ff7f2a;fill-opacity:1;stroke:none;stroke-width:0.10235;stroke-dasharray:none"
           d="m 15.305879,150.97753 h 18.829965 l -9.414983,16.30722 -9.414982,-16.30722"
           id="path37" /><path
           style="fill:#ff7f2a;fill-opacity:1;stroke:none;stroke-width:0.10235;stroke-dasharray:none"
           d="m 34.823584,151.3746 9.41498,16.30726 -18.829962,-4e-5 z"
           id="path38" /><path
           style="fill:#ff7f2a;fill-opacity:1;stroke:none;stroke-width:0.10235;stroke-dasharray:none"
           d="m 35.511344,150.97753 h 18.82995 l -9.41498,16.30722 z"
           id="path39" /><path
           style="fill:#ff7f2a;fill-opacity:1;stroke:none;stroke-width:0.10235;stroke-dasharray:none"
           d="m 45.614054,167.68182 h 18.82997 l -9.41498,-16.30723 -9.41498,16.30723"
           id="path40" /><path
           style="fill:#ff7f2a;fill-opacity:1;stroke:none;stroke-width:0.10235;stroke-dasharray:none"
           d="m 25.408606,168.47596 18.829958,1e-5 -9.41498,16.30722 z"
           id="path41" /><path
           style="fill:#ff7f2a;fill-opacity:1;stroke:none;stroke-width:0.10235;stroke-dasharray:none"
           d="m 44.926314,168.87304 9.41498,16.30725 -18.82996,-4e-5 z"
           id="path42" /><path
           style="fill:#0088aa;fill-opacity:1;stroke:none;stroke-width:0.10235;stroke-dasharray:none"
           d="m 45.614054,168.47594 h 18.82996 l -9.41498,16.30723 z"
           id="path43" /><path
           style="fill:#0088aa;fill-opacity:1;stroke:none;stroke-width:0.10235;stroke-dasharray:none"
           d="m 65.131764,168.87304 9.41498,16.30725 -18.82996,-4e-5 z"
           id="path44" /><path
           style="fill:#0088aa;fill-opacity:1;stroke:none;stroke-width:0.10235;stroke-dasharray:none"
           d="m 55.716784,185.97438 h 18.82996 l -9.41498,16.30723 z"
           id="path45" /><path
           style="fill:#ff7f2a;fill-opacity:1;stroke:none;stroke-width:0.10235;stroke-dasharray:none"
           d="m 35.511324,185.97438 h 18.82995 l -9.41497,16.30723 z"
           id="path46" /><path
           style="fill:#ff7f2a;fill-opacity:1;stroke:none;stroke-width:0.10235;stroke-dasharray:none"
           d="m 55.029044,186.37146 9.41499,16.30725 -18.82996,-4e-5 z"
           id="path47" /><path
           style="fill:#0088aa;fill-opacity:1;stroke:none;stroke-width:0.10235;stroke-dasharray:none"
           d="m 34.823584,186.37148 9.41499,16.30725 -18.829968,-4e-5 z"
           id="path48" /><path
           style="fill:#ff7f2a;fill-opacity:1;stroke:none;stroke-width:0.10235;stroke-dasharray:none"
           d="m 45.614054,203.47282 h 18.82996 l -9.41498,16.30723 z"
           id="path49" /><path
           style="fill:#ff7f2a;fill-opacity:1;stroke:none;stroke-width:0.10235;stroke-dasharray:none"
           d="m 25.408611,203.47282 h 18.829953 l -9.41498,16.30723 z"
           id="path50" /><path
           style="fill:#ff7f2a;fill-opacity:1;stroke:none;stroke-width:0.10235;stroke-dasharray:none"
           d="m 44.926314,203.8699 9.41499,16.30725 -18.82997,-4e-5 z"
           id="path51" /><path
           style="fill:#ff7f2a;fill-opacity:1;stroke:none;stroke-width:0.10235;stroke-dasharray:none"
           d="m 24.720859,203.8699 9.414985,16.30725 -18.829965,-4e-5 z"
           id="path52" /></g><path
         d="m 171.28892,155.79454 v 18.39993 h -38.49016 v -33.80566 h 39.98726 l -4.29815,4.97426 h -25.40253 v 23.85714 h 18.11017 v -13.42567 z m 46.41031,18.39993 H 205.77066 L 187.5639,153.42814 h 17.096 v -8.06507 h -18.6414 v 28.8314 h -10.23829 v -33.80566 h 38.82821 V 158.4024 H 203.8872 Z m 40.27707,-33.80566 v 33.80566 h -10.1417 v -14.39155 h -17.8687 v 14.39155 h -10.33488 v -33.80566 z m -27.86552,4.97426 v 9.4173 h 17.48235 v -9.4173 z m 41.87075,16.85454 v 11.97686 h -10.1417 v -33.80566 h 37.4277 v 21.8288 z m -0.0966,-16.85454 v 11.88028 h 17.24089 v -11.88028 z m 68.96352,-4.97426 v 33.80566 H 330.65846 V 159.75463 H 313.1761 v 14.43984 H 303.131 v -33.80566 h 10.04511 v 14.39156 h 17.48236 v -14.39156 z"
         id="path53"
         style="font-size:48.2938px;font-family:'ROG Fonts';-inkscape-font-specification:'ROG Fonts, Normal';fill:#0088aa;stroke-width:0.0740159"
         aria-label="Graph" /><path
         d="m 127.38982,169.07533 -4.39473,5.11914 H 92.521698 l -4.346442,-4.97426 h 27.189414 l 1.78687,-2.07663 v -7.38895 H 89.479188 v -14.00521 l 4.587911,-5.36061 h 34.481771 l -4.24985,4.97426 h -22.55321 l -2.173218,2.46299 v 6.95431 h 27.817228 z"
         id="path54"
         style="font-size:48.2938px;font-family:'ROG Fonts';-inkscape-font-specification:'ROG Fonts, Normal';fill:#ff7f2a;stroke-width:0.0740159"
         aria-label="S" /></g></g></svg>
